<?xml version="1.0" encoding="iso-8859-1"?>
<!-- Generator: Adobe Illustrator 18.0.0, SVG Export Plug-In . SVG Version: 6.00 Build 0)  -->
<!DOCTYPE svg PUBLIC "-//W3C//DTD SVG 1.1//EN" "http://www.w3.org/Graphics/SVG/1.1/DTD/svg11.dtd">
<svg version="1.1" id="Capa_1" xmlns="http://www.w3.org/2000/svg" xmlns:xlink="http://www.w3.org/1999/xlink" x="0px" y="0px"
	 viewBox="0 0 441.215 441.215" style="enable-background:new 0 0 441.215 441.215;" xml:space="preserve">
<g>
	<g>
		<path style="fill:#DB4545;" d="M94.78,307.715C42.31,307.507-0.208,264.65,0.001,212.18s43.065-94.987,95.535-94.779l-0.067,16.83
			c-43.189-0.172-78.466,34.826-78.638,78.015s34.827,78.466,78.015,78.638L94.78,307.715z"/>
		<path style="fill:#DB4545;" d="M345.679,308.712c52.47,0.208,95.326-42.309,95.535-94.779s-42.309-95.326-94.779-95.535
			l-0.067,16.83c43.189,0.172,78.187,35.448,78.015,78.638s-35.449,78.187-78.638,78.015L345.679,308.712z"/>
		<g>
			<path style="fill:#F74B4B;" d="M101.81,88.222c-23.651,23.464-23.803,61.658-0.339,85.309s61.658,23.803,85.309,0.339
				l-42.485-42.824l42.824-42.485C163.655,64.909,125.461,64.758,101.81,88.222z"/>
			<path style="fill:#F74B4B;" d="M340.393,89.169c-23.464-23.651-61.658-23.803-85.309-0.339l42.485,42.824l-42.824,42.485
				c23.464,23.651,61.658,23.803,85.309,0.339C363.705,151.014,363.857,112.82,340.393,89.169z"/>
		</g>
	</g>
	<g>
		<path style="fill:#DB4545;" d="M67.969,370.492L67.969,370.492l0-32.668h13.005v19.662
			C80.974,364.67,75.152,370.492,67.969,370.492z"/>
		<path style="fill:#DB4545;" d="M101.024,370.492L101.024,370.492l0-32.668h13.005v19.662
			C114.03,364.67,108.207,370.492,101.024,370.492z"/>
		<path style="fill:#DB4545;" d="M134.08,370.492L134.08,370.492l0-32.668h13.005v19.662
			C147.085,364.67,141.262,370.492,134.08,370.492z"/>
	</g>
	<g>
		<path style="fill:#DB4545;" d="M306.103,370.492L306.103,370.492c-7.183,0-13.005-5.823-13.005-13.005v-19.662h13.005V370.492z"/>
		<path style="fill:#DB4545;" d="M339.158,370.492L339.158,370.492c-7.183,0-13.005-5.823-13.005-13.005v-19.662h13.005V370.492z"/>
		<path style="fill:#DB4545;" d="M372.213,370.492L372.213,370.492c-7.183,0-13.005-5.823-13.005-13.005v-19.662h13.005V370.492z"/>
	</g>
	<path style="fill:#F74B4B;" d="M372.211,343.776l-304.24-1.21c0.3-77.62,58.69-141.42,133.82-150.42c6.19-0.75,12.5-1.13,18.9-1.1
		c5.79,0.02,11.5,0.37,17.12,1.03C313.741,200.876,372.53,265.546,372.211,343.776z"/>
	<g>
		<g>
			<circle style="fill:#FFFFFF;" cx="197.393" cy="314.04" r="18.207"/>
			<circle style="fill:#4D4D4D;" cx="197.393" cy="314.04" r="11.14"/>
		</g>
		<g>
			<circle style="fill:#FFFFFF;" cx="243.869" cy="314.04" r="18.207"/>
			<circle style="fill:#4D4D4D;" cx="243.869" cy="314.04" r="11.14"/>
		</g>
	</g>
	<g>
		<path style="fill:#F74B4B;" d="M216.091,356.176L216.091,356.176c-6.075,0-11-4.925-11-11v-7h11V356.176z"/>
		<path style="fill:#F74B4B;" d="M224.091,356.176L224.091,356.176l0-18h11v7C235.091,351.251,230.166,356.176,224.091,356.176z"/>
	</g>
	<path style="fill:#DB4545;" d="M237.811,192.076l-18.02,82.1l-18-82.03c6.19-0.75,12.5-1.13,18.9-1.1
		C226.481,191.066,232.191,191.416,237.811,192.076z"/>
</g>
<g>
</g>
<g>
</g>
<g>
</g>
<g>
</g>
<g>
</g>
<g>
</g>
<g>
</g>
<g>
</g>
<g>
</g>
<g>
</g>
<g>
</g>
<g>
</g>
<g>
</g>
<g>
</g>
<g>
</g>
</svg>
